<svg xmlns="http://www.w3.org/2000/svg" viewBox="0 0 67.44 86.7"><defs><style>.cls-1{fill:#fff;}</style></defs><g id="Layer_2" data-name="Layer 2"><g id="Layer_1-2" data-name="Layer 1"><path class="cls-1" d="M20.65,23.7a6.71,6.71,0,0,0,.2,3.25c.94,2.86,2.68.47,4.26-1.1.64-.64.45-1.76,0-2.87a55.71,55.71,0,0,1,8-.22l-1.72,2.8c-.87,1.41-3.86,3.32-3.09,4.3s6.25-2.67,8-3.59c.84-.44,1.48-2,1.92-3.61a39.58,39.58,0,0,0,11.06-2.9,6.12,6.12,0,0,1-1,1.13,12.88,12.88,0,0,0,1.72-1.48c.81-.37,1.61-.77,2.42-1.23a2.28,2.28,0,0,0,.71-3.25c-.22-.33-.48-.7-.78-1.08a3.27,3.27,0,0,0-.1-2.39,10.89,10.89,0,0,1-.27,1.93c-2.09-2.5-5.88-5.54-12.3-6.74C38.66,4.26,36.28.25,33,0,28.22-.3,29.31,2.49,30.1,3.15a30,30,0,0,1,2.75,3c-1.17,0-2.38.1-3.68.24a34.22,34.22,0,0,0-10.75,3c-.41-1-1.11-2.12-2.21-2-2,.17-4.67,1.85-3.42,3.43A6.08,6.08,0,0,0,14,11.91C3.06,19.29-2.42,32.52,1,44.19a2.54,2.54,0,0,1,.09.54l.14,9.34a2.33,2.33,0,0,0,.18.87l2.31,5.37.6-2.06,3.35,1.29L2.84,46.16a1.79,1.79,0,0,1-.13-.6C2.54,43.19,2.23,27.78,20.65,23.7Z"/><path class="cls-1" d="M48.39,20.89c-.28.22-.48.36-.48.36A2.5,2.5,0,0,0,48.39,20.89Z"/><path class="cls-1" d="M66.42,42.5a1.91,1.91,0,0,1-.08-.54l-.15-9.33a2.15,2.15,0,0,0-.18-.87L63.7,26.38l-.6,2.07-3.35-1.3,4.86,13.39a2.4,2.4,0,0,1,.13.59c.16,2.38.47,17.79-17.95,21.87a6.63,6.63,0,0,0-.2-3.26c-.94-2.85-2.68-.47-4.26,1.11-.63.63-.44,1.75,0,2.87a57.15,57.15,0,0,1-8,.22c.7-1.15,1.38-2.25,1.72-2.8.87-1.42,3.86-3.32,3.1-4.3s-6.25,2.66-8.05,3.59c-.84.43-1.48,2-1.92,3.6A39.82,39.82,0,0,0,18.1,66.94a6.54,6.54,0,0,1,.95-1.14,13.8,13.8,0,0,0-1.72,1.49c-.8.37-1.61.77-2.42,1.22a2.29,2.29,0,0,0-.71,3.25c.22.34.49.7.78,1.08a3.34,3.34,0,0,0,.1,2.4,10.89,10.89,0,0,1,.27-1.93,20.46,20.46,0,0,0,12.3,6.74c1.13,2.39,3.51,6.4,6.83,6.62,4.74.32,3.65-2.47,2.86-3.12a29.24,29.24,0,0,1-2.75-3c1.17,0,2.38-.09,3.68-.24a33.87,33.87,0,0,0,10.75-3c.42,1,1.11,2.11,2.21,2,2-.16,4.67-1.85,3.42-3.42a5.48,5.48,0,0,0-1.2-1.1C64.39,67.41,69.86,54.18,66.42,42.5Z"/><path class="cls-1" d="M19.05,65.8c.28-.21.49-.35.49-.35A2.22,2.22,0,0,0,19.05,65.8Z"/></g></g></svg>